<?xml version="1.0" encoding="utf-8"?>
<!-- Generator: Adobe Illustrator 21.0.0, SVG Export Plug-In . SVG Version: 6.00 Build 0)  -->
<svg version="1.1" id="Layer_1" xmlns="http://www.w3.org/2000/svg" xmlns:xlink="http://www.w3.org/1999/xlink" x="0px" y="0px"
	 viewBox="0 0 30 30" style="enable-background:new 0 0 30 30;" xml:space="preserve">
<style type="text/css">
	.st0{fill:none;}
	.st1{fill:#E6E4E5;}
</style>
<path class="st0" d="M0,0h30v30H0V0z"/>
<path class="st1" d="M28.9,20.2c-0.3-2.4-0.7-4.7-1-7.1c-0.6-4.4-4.4-7.7-8.9-7.7c-1.4,0-2.7,0-4.1,0c-0.3,0-0.6,0-0.9,0
	c-1.3,0-2.7,0-4,0.1c-4,0.3-7.3,3.4-8,7.4c-0.2,1.4-0.4,2.8-0.6,4.2c-0.1,1-0.4,2.1-0.4,3.2c-0.2,2.3,1.3,4.3,3.5,4.9
	s4.4-0.4,5.4-2.5c0.5-1,1-2.1,1.6-3.1c0.1-0.1,0.2-0.2,0.3-0.2c2.1,0,4.2,0,6.3,0c0.2,0,0.3,0.1,0.3,0.2c0.5,1.1,1.1,2.1,1.6,3.2
	c1,2,3.3,3,5.4,2.4C27.6,24.6,29.2,22.6,28.9,20.2z M11.9,13.3c-0.7,0-1.3,0-2,0c0,0.7,0,1.3,0,2c-0.7,0-1.3,0-2,0c0-0.7,0-1.3,0-2
	c-0.4,0-0.8,0-1.2,0c-0.2,0-0.4,0-0.5,0c-0.2,0-0.3-0.1-0.3-0.3c0-0.6,0-1.1,0-1.7c0.7,0,1.3,0,2,0c0-0.7,0-1.3,0-2c0.7,0,1.3,0,2,0
	c0,0.6,0,1.3,0,2c0.2,0,0.3,0,0.4,0c0.5,0,0.9,0,1.4,0c0.1,0,0.2,0.1,0.2,0.1C11.9,12.1,11.9,12.7,11.9,13.3z M20.9,8.3
	c0.7,0,1.3,0.6,1.3,1.3s-0.6,1.3-1.3,1.3c-0.7,0-1.3-0.6-1.3-1.3C19.6,8.9,20.2,8.3,20.9,8.3z M18.2,13.7c-0.7,0-1.3-0.6-1.3-1.3
	s0.6-1.3,1.4-1.3c0.7,0,1.3,0.6,1.3,1.3C19.6,13.1,19,13.7,18.2,13.7z M20.9,16.3c-0.8,0-1.3-0.6-1.3-1.3s0.6-1.3,1.3-1.3
	c0.7,0,1.3,0.6,1.3,1.3C22.3,15.7,21.7,16.3,20.9,16.3z M23.6,13.7c-0.7,0-1.3-0.6-1.3-1.3s0.6-1.3,1.3-1.3c0.7,0,1.3,0.6,1.3,1.3
	C24.9,13.1,24.3,13.7,23.6,13.7z"/>
</svg>
