<?xml version="1.0" encoding="utf-8"?>
<!-- Generator: Adobe Illustrator 21.0.0, SVG Export Plug-In . SVG Version: 6.00 Build 0)  -->
<svg version="1.1" id="Layer_1" xmlns="http://www.w3.org/2000/svg" xmlns:xlink="http://www.w3.org/1999/xlink" x="0px" y="0px"
	 viewBox="0 0 512 409.6" style="enable-background:new 0 0 512 409.6;" xml:space="preserve">
<style type="text/css">
	.st0{fill:#FA06BA;}
</style>
<path class="st0" d="M506.6,161.8L263.9,2.3c-4.7-3.1-11-3.1-15.7,0L5.4,161.8c-5.9,3.9-7.2,11.4-2.9,16.7s12.7,6.5,18.6,2.6
	l35.3-23.2v239.8c0,6.6,6,11.9,13.3,11.9h133c7,0,12.7-4.8,13.3-11c0-0.3,0.1-0.6,0.1-0.9V282c0-19.7,17.9-35.8,39.9-35.8
	s39.9,16.1,39.9,35.8v115.7c0,0.3,0,0.6,0.1,0.9c0.5,6.2,6.3,11,13.2,11h133c7.3,0,13.3-5.3,13.3-11.9V157.9l35.3,23.2
	c2.4,1.6,5.1,2.3,7.8,2.3c4.1,0,8.1-1.7,10.7-4.9C513.8,173.1,512.5,165.7,506.6,161.8L506.6,161.8z M189.5,282
	c0-27.9,21.4-51.4,50.3-57.9C210.9,230.6,189.5,254.1,189.5,282z M82.9,140.4L256,26.7L82.9,140.4z M428.9,385.7H322.5H428.9
	l0.1-245.3L428.9,385.7z"/>
</svg>
