<?xml version="1.0" encoding="utf-8"?>
<!-- Generator: Adobe Illustrator 21.0.0, SVG Export Plug-In . SVG Version: 6.00 Build 0)  -->
<svg version="1.1" id="Layer_1" xmlns="http://www.w3.org/2000/svg" xmlns:xlink="http://www.w3.org/1999/xlink" x="0px" y="0px"
	 viewBox="0 0 65 65" style="enable-background:new 0 0 65 65;" xml:space="preserve">
<style type="text/css">
	.st0{fill:none;}
	.st1{fill:#E6E4E5;}
</style>
<path class="st0" d="M0,0h65v65H0V0z"/>
<g>
	<path class="st1" d="M61.3,19.8c0,10.8,0,21.6,0,32.4c-0.1,0.3-0.2,0.7-0.3,1c-0.8,2.2-2.7,3.5-5.2,3.5c-15.3,0-30.6,0-45.9,0
		c-0.2,0-0.4,0-0.6,0c-2.3-0.2-3.8-1.4-4.6-3.5c-0.1-0.3-0.2-0.7-0.3-1c0-10.8,0-21.6,0-32.4c0.1-0.3,0.2-0.7,0.3-1
		c0.8-2.2,2.7-3.5,5.3-3.5c6.1,0,12.3,0,18.4,0c0.2,0,0.4,0,0.6,0c0,0,0-0.1,0.1-0.1c-2.8-2.8-5.6-5.5-8.4-8.3
		c0.7-0.6,1.3-1.2,2-1.8c3.4,3.4,6.8,6.8,10.3,10.3c3.4-3.4,6.9-6.9,10.3-10.3c0.6,0.6,1.2,1.2,1.8,1.9c-2.8,2.8-5.5,5.5-8.4,8.4
		c0.3,0,0.6,0,0.8,0c6.2,0,12.3,0,18.5,0c2.6,0,4.5,1.3,5.3,3.6C61.1,19.2,61.2,19.5,61.3,19.8z M9.5,51.6c15.5,0,31.1,0,46.6,0
		c0-10.4,0-20.7,0-31c-15.6,0-31.1,0-46.6,0C9.5,30.9,9.5,41.2,9.5,51.6z"/>
	<g>
		<path class="st1" d="M14.1,27.2h17.2v4.5h-5.8v13.8h-5.6V31.7h-5.8C14.1,31.7,14.1,27.2,14.1,27.2z"/>
		<path class="st1" d="M32,27.2h5.9L42,40.4l4.1-13.2h5.7L45,45.5h-6.1L32,27.2z"/>
	</g>
</g>
</svg>
