<?xml version="1.0" encoding="utf-8"?>
<!-- Generator: Adobe Illustrator 21.0.0, SVG Export Plug-In . SVG Version: 6.00 Build 0)  -->
<svg version="1.1" id="Layer_1" xmlns="http://www.w3.org/2000/svg" xmlns:xlink="http://www.w3.org/1999/xlink" x="0px" y="0px"
	 viewBox="0 0 30 30" style="enable-background:new 0 0 30 30;" xml:space="preserve">
<style type="text/css">
	.st0{fill:none;}
	.st1{fill:#E6E4E5;}
</style>
<path class="st0" d="M0,0h30v30H0V0z"/>
<g>
	<path class="st1" d="M5.6,17.1c-0.9-0.5-1.7-0.9-2.5-1.3c-0.5-0.2-0.7-0.6-0.7-1.2c0-0.6,0.3-1,0.7-1.2c0.8-0.4,1.6-0.8,2.4-1.3
		c-0.5-0.4-1-0.7-1.5-0.9c-0.3-0.2-0.6-0.3-0.9-0.5c-0.5-0.2-0.7-0.6-0.7-1.2s0.3-1,0.7-1.2c2.2-1.2,4.5-2.4,6.7-3.6
		C11.4,3.8,13,3,14.6,2.1c0.5-0.3,0.9-0.3,1.3,0c3.8,2,7.5,4,11.3,6c0.5,0.3,0.9,0.6,0.9,1.3s-0.4,1.1-0.9,1.3
		c-0.7,0.4-1.4,0.8-2.3,1.2c0.9,0.5,1.6,0.9,2.3,1.3c0.5,0.2,0.8,0.6,0.8,1.3s-0.4,1-0.8,1.3c-0.7,0.4-1.5,0.8-2.4,1.3
		c0.6,0.3,1.1,0.6,1.6,0.9c0.3,0.2,0.6,0.3,0.8,0.5c0.5,0.2,0.7,0.6,0.7,1.2s-0.3,1-0.7,1.2c-2.2,1.2-4.5,2.4-6.7,3.6
		c-1.6,0.8-3.1,1.7-4.7,2.5c-0.5,0.3-0.9,0.2-1.3,0c-3.8-2-7.5-4-11.3-6c-0.5-0.3-0.9-0.6-0.9-1.3c0-0.7,0.4-1.1,0.9-1.3
		C4,17.9,4.7,17.5,5.6,17.1z M6,9.5c0.1,0.1,0.2,0.2,0.3,0.2c2.9,1.5,5.7,3.1,8.6,4.6c0.2,0.1,0.5,0.1,0.7,0
		c1.8-0.9,3.6-1.9,5.4-2.9c1.1-0.6,2.3-1.2,3.5-1.9c-3-1.6-6-3.2-9-4.8c-0.2-0.1-0.4-0.1-0.6,0C12,6.3,9.1,7.9,6,9.5z M6,19.6
		c3,1.6,6,3.2,8.9,4.8c0.2,0.1,0.5,0.1,0.7,0c1.9-1,3.7-2,5.6-3c1-0.6,2.1-1.1,3.2-1.7c-0.6-0.3-1.2-0.6-1.7-0.9
		c-0.3-0.2-0.6-0.2-0.9,0c-2,1.1-3.9,2.1-5.9,3.2c-0.5,0.3-1,0.3-1.5,0c-2-1.1-4-2.1-5.9-3.2c-0.2-0.1-0.4-0.2-0.6-0.1
		C7.3,18.9,6.7,19.2,6,19.6z M6,14.5c0.1,0.1,0.2,0.1,0.2,0.2c2.9,1.5,5.8,3.1,8.7,4.6c0.2,0.1,0.5,0.1,0.8,0
		c2.4-1.3,4.8-2.5,7.2-3.8c0.5-0.3,1-0.6,1.6-0.9c-0.6-0.3-1.2-0.7-1.7-0.9c-0.2-0.1-0.6-0.1-0.8,0c-2,1-3.9,2.1-5.9,3.1
		c-0.6,0.3-1,0.3-1.6,0c-2-1.1-3.9-2.1-5.9-3.2c-0.2-0.1-0.4-0.2-0.6-0.1C7.3,13.8,6.7,14.2,6,14.5z"/>
	<path class="st1" d="M14.7,11.8c0-0.5,0-0.9,0-1.4c-0.3,0.1-0.6,0.3-1,0.3c-1,0.2-1.7-0.6-1.3-1.6c0.1-0.3,0.3-0.7,0.6-1
		c0.6-0.7,1.3-1.3,1.9-2c0.1-0.2,0.3-0.2,0.5,0c0.7,0.7,1.5,1.5,2.2,2.3C17.7,8.7,17.9,9,18,9.3c0.3,0.9-0.3,1.6-1.2,1.5
		c-0.3,0-0.7-0.2-1-0.3c0,0.4,0,0.9,0,1.3c0.4,0,0.7,0,1,0c0.4,0,0.6,0.2,0.6,0.5s-0.2,0.5-0.6,0.5c-1,0-2,0-3,0
		c-0.4,0-0.6-0.2-0.6-0.5s0.2-0.5,0.6-0.5C14,11.8,14.4,11.8,14.7,11.8z"/>
</g>
</svg>
