<?xml version="1.0" encoding="utf-8"?>
<!-- Generator: Adobe Illustrator 21.0.0, SVG Export Plug-In . SVG Version: 6.00 Build 0)  -->
<svg version="1.1" id="Layer_1" xmlns="http://www.w3.org/2000/svg" xmlns:xlink="http://www.w3.org/1999/xlink" x="0px" y="0px"
	 viewBox="0 0 30 30" style="enable-background:new 0 0 30 30;" xml:space="preserve">
<style type="text/css">
	.st0{fill:none;}
	.st1{fill:#E6E4E5;}
</style>
<path class="st0" d="M0,0h30v30H0V0z"/>
<g>
	<path class="st1" d="M20.3,22.7c-0.2,1-0.8,1.5-1.6,1.9c-2.5,1.2-5,2.5-7.5,3.8c-1.2,0.6-2.6,0-3.1-1.1C6,23,3.8,18.8,1.7,14.5
		c-0.7-1.4-0.2-2.7,1.1-3.4c0.7-0.3,1.3-0.7,2-1c0.3,0,0.3-0.2,0.2-0.4C4.9,9.4,4.9,9.1,4.8,8.8C4.5,7.5,5.3,6.3,6.6,6
		c1.1-0.2,2.1-0.5,3.2-0.7c0.2,0,0.3-0.1,0.3-0.3c0.2-1.1,1.2-2,2.4-1.9c1.2,0,2.4,0.1,3.7,0.2c0.2,0,0.4,0,0.5-0.2
		c0.6-0.8,1.7-1.1,2.7-0.8c2.7,0.9,5.4,1.8,8.1,2.7c1.3,0.4,2,1.8,1.5,3.1c-1.5,4.6-3.1,9.1-4.6,13.7c-0.4,1.3-1.6,1.9-2.9,1.4
		C21,23,20.7,22.8,20.3,22.7z M28.1,7c0-0.6-0.3-1-0.9-1.2c-1.1-0.4-2.3-0.8-3.4-1.1c-1.6-0.5-3.2-1.1-4.8-1.6
		c-0.8-0.3-1.4,0-1.7,0.8c0,0.1-0.1,0.2-0.1,0.3c-1.5,4.5-3,9.1-4.6,13.6c-0.3,0.8,0,1.3,0.8,1.6c2.8,0.9,5.6,1.9,8.4,2.8
		c0.8,0.3,1.3,0,1.6-0.8c1.5-4.6,3.1-9.2,4.6-13.8C28,7.4,28,7.2,28.1,7z M19.4,22.7c-0.1,0-0.2,0-0.3,0.1c-2.8,0.6-5.5,1.3-8.3,1.9
		C9.6,25,8.4,24.3,8.1,23c-0.8-3.4-1.6-6.8-2.4-10.2c-0.1-0.6-0.3-1.2-0.4-1.8c-0.7,0.4-1.4,0.7-2.1,1c-0.9,0.5-1.1,1.1-0.7,2
		c2.2,4.4,4.4,8.7,6.5,13c0.4,0.8,0.9,0.9,1.7,0.5c1-0.5,2-1,3-1.5c1.7-0.8,3.3-1.7,5-2.5C19,23.4,19.3,23.1,19.4,22.7z M16.1,4.2
		C16,4.2,16,4.1,16.1,4.2C14.7,4.1,13.5,4,12.3,4c-0.5,0-0.9,0.2-1.1,0.7C11.1,4.9,11,5.2,11,5.5c-0.1,1.2-0.1,2.5-0.2,3.7
		c-0.1,1.5-0.2,2.9-0.2,4.4c-0.1,0.9-0.1,1.9-0.1,2.8c-0.1,1.2-0.1,2.4-0.2,3.6c0,0.6,0.4,1,1,1.1c1.1,0.1,2.1,0.1,3.2,0.2
		c0.5,0,1,0,1.6,0.1c-0.1-0.1-0.2-0.1-0.3-0.2c-0.9-0.3-1.8-0.6-2.7-0.9c-1.3-0.4-1.9-1.6-1.4-2.9c1.3-3.8,2.6-7.6,3.8-11.5
		C15.7,5.3,15.9,4.8,16.1,4.2z M10,6.2C8.9,6.5,7.8,6.7,6.8,6.9C6,7.1,5.6,7.7,5.8,8.5c0.1,0.6,0.3,1.2,0.4,1.9
		c1,4.1,1.9,8.2,2.9,12.3c0.2,0.8,0.7,1.1,1.5,0.9c1.4-0.3,2.8-0.6,4.2-1c0.5-0.1,1-0.2,1.5-0.4c-1.6-0.1-3.2-0.2-4.8-0.3
		c-1,0-1.9-0.7-2.1-1.7c-0.1-0.5,0-1,0-1.5c0-1,0.1-2,0.1-3c0.1-1.4,0.1-2.9,0.2-4.3c0.1-1,0.1-2.1,0.2-3.1C9.9,7.7,10,7,10,6.2z"/>
	<path class="st1" d="M19.1,14.5c0.1-0.4,0.3-0.9,0.4-1.3c-0.4,0-0.7,0.1-1,0c-1-0.2-1.4-1.2-0.7-1.9c0.2-0.3,0.6-0.5,0.9-0.7
		c0.8-0.4,1.6-0.8,2.4-1.2c0.2-0.1,0.3-0.1,0.4,0.1c0.4,0.9,0.9,1.9,1.3,2.9c0.1,0.3,0.1,0.6,0.1,0.8c0,0.9-0.8,1.4-1.7,1
		c-0.3-0.1-0.6-0.4-0.9-0.6c-0.1,0.4-0.3,0.8-0.4,1.3c0.3,0.1,0.7,0.2,1,0.3s0.5,0.4,0.4,0.7c-0.1,0.3-0.4,0.4-0.7,0.3
		c-1-0.3-1.9-0.6-2.9-1c-0.4-0.1-0.5-0.4-0.4-0.7s0.4-0.4,0.7-0.3C18.5,14.3,18.8,14.4,19.1,14.5z"/>
	<path class="st1" d="M19.1,6.3C19,6.4,19,6.5,19,6.7c0.1,0.1,0.3,0.1,0.4,0.1c0.2,0.1,0.3,0.2,0.2,0.4c-0.1,0.2-0.2,0.2-0.4,0.2
		c-0.5-0.2-1-0.3-1.4-0.5c-0.2-0.1-0.3-0.2-0.2-0.4c0.1-0.2,0.2-0.2,0.4-0.2c0.1,0,0.2,0.1,0.4,0.1c0.1-0.1,0.1-0.3,0.1-0.4
		c-0.1,0-0.1,0-0.2,0c-0.4,0-0.7-0.2-0.8-0.5c-0.1-0.3,0.1-0.7,0.4-0.9c0.5-0.3,1-0.5,1.4-0.7c0.1,0,0.3,0,0.4,0.1
		c0.2,0.4,0.4,0.9,0.6,1.4c0,0.1,0.1,0.2,0.1,0.3c0,0.3,0,0.6-0.3,0.8c-0.3,0.2-0.6,0.1-0.9-0.1C19.3,6.3,19.2,6.3,19.1,6.3z"/>
	<path class="st1" d="M5.5,13.5c-0.1,0.5-0.3,0.9-0.4,1.3c-0.2,0.8-0.2,0.8-0.9,0.4c-0.3-0.2-0.6-0.4-0.9-0.5
		c-0.2-0.1-0.3-0.2-0.2-0.5c0.1-0.5,0.3-1,0.4-1.5c0.1-0.3,0.2-0.3,0.5-0.2c0.4,0.3,0.9,0.5,1.3,0.8C5.4,13.3,5.5,13.4,5.5,13.5z"/>
	<path class="st1" d="M13.1,5c0.5-0.4,0.9-0.4,1.2-0.1c0.4,0.3,0.4,0.9,0.1,1.3c-0.3,0.4-0.7,0.6-1.1,0.9c-0.1,0.1-0.2,0-0.3,0
		c-0.4-0.3-0.8-0.6-1.1-0.9s-0.3-0.7-0.1-1.1C12,4.6,12.6,4.6,13.1,5z"/>
	<path class="st1" d="M8.2,8.5c0.1-0.1,0.1-0.2,0.2-0.3C8.6,8,8.8,7.9,9.1,8.1c0.2,0.2,0.3,0.4,0.2,0.7C9.2,9,8.9,9.1,8.7,9.1
		c-0.1,0-0.2,0-0.4,0c0.1,0.3,0.1,0.5,0.2,0.7c0.1,0,0.2,0,0.3-0.1c0.2-0.1,0.4,0,0.4,0.2c0.1,0.2,0,0.3-0.2,0.4
		c-0.4,0.1-0.7,0.2-1.1,0.3c-0.2,0.1-0.4,0-0.4-0.2c0-0.1,0.1-0.3,0.2-0.4c0-0.1,0.1-0.1,0.3-0.1C7.8,9.7,7.7,9.5,7.7,9.3
		c-0.1,0-0.1-0.1-0.2-0.1c0,0.1-0.1,0.2-0.1,0.3C7.2,9.7,6.9,9.7,6.7,9.6C6.4,9.4,6.3,9.1,6.5,8.9c0.2-0.3,0.4-0.4,0.7-0.3
		c0.1,0,0.2,0,0.3,0c0-0.1-0.1-0.2-0.1-0.3C7,8,6.9,7.7,7.3,7.4c0.2-0.2,0.4-0.2,0.6,0C8.1,7.6,8.2,7.8,8.1,8C8.1,8.1,8,8.3,8,8.4
		C8.1,8.4,8.1,8.4,8.2,8.5z"/>
</g>
</svg>
