<?xml version="1.0" encoding="utf-8"?>
<!-- Generator: Adobe Illustrator 21.0.0, SVG Export Plug-In . SVG Version: 6.00 Build 0)  -->
<svg version="1.1" id="Layer_1" xmlns="http://www.w3.org/2000/svg" xmlns:xlink="http://www.w3.org/1999/xlink" x="0px" y="0px"
	 viewBox="0 0 512 512" style="enable-background:new 0 0 512 512;" xml:space="preserve">
<style type="text/css">
	.st0{fill:#E6E4E5;}
</style>
<g>
	<path class="st0" d="M475.2,264.5c-3.4-5.2-3.4-11.8,0-17l18.7-28.7c17-26.2,5.6-61.3-23.6-72.5l-32-12.3c-5.8-2.2-9.7-7.6-10-13.8
		L426.6,86C425,54.8,395,33.1,364.9,41.2l-33.1,8.9c-5.9,1.6-12.3-0.5-16.2-5.3L294,18.1c-19.6-24.3-56.6-24.2-76.2,0l-21.6,26.7
		c-3.9,4.8-10.2,6.9-16.2,5.3l-33.1-8.9C116.9,33.1,87,54.9,85.4,86l-1.8,34.2c-0.3,6.2-4.2,11.6-10,13.8l-32,12.3
		C12.4,157.5,1,192.7,18,218.8l18.7,28.7c3.4,5.2,3.4,11.8,0,17L18,293.2c-17,26.2-5.6,61.4,23.6,72.5l32,12.3
		c5.8,2.2,9.7,7.6,10,13.8l1.8,34.2c1.6,31.2,31.6,52.9,61.7,44.8l33.1-8.9c6-1.6,12.3,0.5,16.2,5.3l21.6,26.7
		c19.6,24.3,56.6,24.2,76.2,0l21.6-26.7c3.9-4.8,10.2-6.8,16.2-5.3l33.1,8.9c30.2,8.1,60.1-13.7,61.7-44.8l1.8-34.2
		c0.3-6.2,4.2-11.5,10-13.8l32-12.3c29.2-11.2,40.6-46.4,23.6-72.5L475.2,264.5z M458.4,334.5l-32,12.3
		c-18.1,6.9-30.4,23.9-31.4,43.2l-1.8,34.2c-0.5,9.9-10,16.8-19.6,14.2l-33.1-8.9c-18.7-5-38.7,1.5-50.8,16.5l-21.6,26.7
		c-6.2,7.7-18,7.7-24.2,0L222.3,446c-9.4-11.7-23.6-18.2-38.1-18.2c-4.2,0-8.5,0.5-12.7,1.7l-33.1,8.9c-9.6,2.6-19.1-4.3-19.6-14.2
		L117,390c-1-19.3-13.3-36.3-31.4-43.2l-32-12.3c-9.3-3.6-12.9-14.7-7.5-23.1l18.7-28.7c10.6-16.2,10.6-37.2,0-53.5l-18.7-28.7
		c-5.4-8.3-1.8-19.5,7.5-23.1l32-12.3c18.1-6.9,30.4-23.9,31.4-43.2l1.8-34.2c0.5-9.9,10-16.8,19.6-14.2l33.1,8.9
		c18.7,5,38.7-1.5,50.8-16.5l21.6-26.7c6.2-7.7,18-7.7,24.2,0l21.6,26.7c12.2,15.1,32.1,21.5,50.8,16.5l33.1-8.9
		c9.6-2.6,19.1,4.3,19.6,14.2L395,122c1,19.3,13.3,36.3,31.4,43.2l32,12.3c9.3,3.6,12.9,14.7,7.5,23.1l-18.7,28.7
		c-10.6,16.2-10.6,37.2,0,53.5l18.7,28.7C471.3,319.8,467.7,331,458.4,334.5L458.4,334.5z"/>
	<path class="st0" d="M339.5,170.8c-6.5-6.5-17.1-6.5-23.6,0l-156,156c-6.5,6.5-6.5,17.1,0,23.6c3.3,3.3,7.5,4.9,11.8,4.9
		s8.6-1.6,11.8-4.9l156-156C346,188,346,177.4,339.5,170.8L339.5,170.8z"/>
	<path class="st0" d="M188.4,165.9c-18.4,0-33.4,15-33.4,33.4s15,33.4,33.4,33.4s33.4-15,33.4-33.4S206.8,165.9,188.4,165.9z"/>
	<path class="st0" d="M311,288.5c-18.4,0-33.4,15-33.4,33.4s15,33.4,33.4,33.4s33.4-15,33.4-33.4S329.4,288.5,311,288.5z"/>
</g>
</svg>
