<?xml version="1.0" encoding="utf-8"?>
<!-- Generator: Adobe Illustrator 21.0.0, SVG Export Plug-In . SVG Version: 6.00 Build 0)  -->
<svg version="1.1" id="Layer_1" xmlns="http://www.w3.org/2000/svg" xmlns:xlink="http://www.w3.org/1999/xlink" x="0px" y="0px"
	 viewBox="0 0 30 30" style="enable-background:new 0 0 30 30;" xml:space="preserve">
<style type="text/css">
	.st0{fill:none;}
	.st1{fill:#E6E4E5;}
</style>
<path class="st0" d="M0,0h30v30H0V0z"/>
<g>
	<path class="st1" d="M15.6,2.3c7.3,0.1,13.2,6,13.1,13.3c-0.1,7.4-6.1,13.2-13.4,13.1c-7.4-0.2-13.1-6.2-13-13.4
		C2.5,8,8.3,2.3,15.6,2.3z M12,4.8C9.7,5.5,7.8,6.9,6.4,8.9c0.7-0.1,1.3-0.1,2-0.2c0.3,1.6,0.6,3.1,0.9,4.6c0,0.1-0.1,0.2-0.1,0.3
		c-0.9,0.9-1.9,1.8-2.8,2.7c-0.2,0.2-0.3,0.3-0.5,0.5c-0.5-0.4-1-0.8-1.5-1.3c-0.2,1.8,1.1,5.8,2.2,6.6c0.1-0.6,0.3-1.2,0.4-1.9
		c0.1,0,0.1,0,0.1,0c1.5,0.2,2.9,0.4,4.4,0.5c0.2,0,0.3,0.1,0.4,0.3c0.5,1,0.9,2,1.4,3.1c0.2,0.3,0.3,0.7,0.5,1.1
		c-0.6,0.3-1.1,0.7-1.7,1c1.8,0.8,5.7,0.8,7,0c-0.5-0.3-1.1-0.7-1.6-1c0-0.1,0-0.1,0-0.1c0.6-1.4,1.3-2.7,1.9-4.1
		c0-0.1,0.2-0.2,0.3-0.2c0.9-0.1,1.8-0.2,2.7-0.3c0.6-0.1,1.2-0.1,1.8-0.2c0.1,0.6,0.3,1.3,0.5,1.9c1.5-2,2.2-4.2,2.2-6.7
		c-0.5,0.5-1,0.9-1.5,1.3l-0.1-0.1c-1.1-1-2.2-2.1-3.3-3.1c-0.1-0.1-0.1-0.2-0.1-0.3c0.3-1.4,0.6-2.8,0.8-4.3c0-0.3,0.1-0.3,0.4-0.3
		c0.1,0,0.3,0,0.5,0c0.4,0,0.8,0.1,1.2,0.1c-1.5-2-3.3-3.4-5.7-4.1c0.3,0.6,0.5,1.2,0.8,1.8l-0.1,0.1c-1.3,0.7-2.6,1.5-4,2.2
		c-0.1,0.1-0.2,0-0.4,0c-1.3-0.7-2.5-1.4-3.8-2.1c-0.1,0-0.1-0.1-0.2-0.1C11.5,6,11.8,5.4,12,4.8z"/>
	<path class="st1" d="M15.5,19.3c-0.8,0-1.6,0-2.4,0c-0.2,0-0.3,0-0.3-0.2c-0.5-1.5-1-3-1.5-4.5c-0.1-0.2,0-0.3,0.1-0.4
		c1.3-0.9,2.6-1.8,3.8-2.8c0.2-0.1,0.3-0.1,0.4,0c1.3,0.9,2.5,1.8,3.8,2.8c0.2,0.1,0.2,0.2,0.1,0.4c-0.5,1.5-1,3-1.4,4.5
		c-0.1,0.2-0.1,0.2-0.3,0.2C17.1,19.3,16.3,19.3,15.5,19.3L15.5,19.3z"/>
</g>
</svg>
